<?xml version="1.0" encoding="UTF-8" standalone="no"?>
<!-- Created with Inkscape (http://www.inkscape.org/) -->

<svg
   xmlns:dc="http://purl.org/dc/elements/1.1/"
   xmlns:cc="http://creativecommons.org/ns#"
   xmlns:rdf="http://www.w3.org/1999/02/22-rdf-syntax-ns#"
   xmlns:svg="http://www.w3.org/2000/svg"
   xmlns="http://www.w3.org/2000/svg"
   xmlns:sodipodi="http://sodipodi.sourceforge.net/DTD/sodipodi-0.dtd"
   xmlns:inkscape="http://www.inkscape.org/namespaces/inkscape"
   width="189.14032mm"
   height="185.87567mm"
   viewBox="0 0 670.18224 658.61458"
   id="svg5328"
   version="1.1"
   inkscape:version="0.91 r13725"
   sodipodi:docname="medal gold 2.svg">
  <defs
     id="defs5330">
    <clipPath
       id="clipEmfPath1"
       clipPathUnits="userSpaceOnUse">
      <path
         inkscape:connector-curvature="0"
         id="path5341"
         d="m 1.25029,1.25029 295.06771,0 0,295.06771 -295.06771,0 z" />
    </clipPath>
    <pattern
       y="0"
       x="0"
       height="6"
       width="6"
       patternUnits="userSpaceOnUse"
       id="EMFhbasepattern" />
  </defs>
  <sodipodi:namedview
     id="base"
     pagecolor="#ffffff"
     bordercolor="#666666"
     borderopacity="1.0"
     inkscape:pageopacity="0.0"
     inkscape:pageshadow="2"
     inkscape:zoom="0.35"
     inkscape:cx="352.94826"
     inkscape:cy="277.87872"
     inkscape:document-units="px"
     inkscape:current-layer="layer1"
     showgrid="false"
     inkscape:window-width="1366"
     inkscape:window-height="706"
     inkscape:window-x="-8"
     inkscape:window-y="-8"
     inkscape:window-maximized="1"
     fit-margin-top="0"
     fit-margin-left="0"
     fit-margin-right="0"
     fit-margin-bottom="0" />
  <metadata
     id="metadata5333">
    <rdf:RDF>
      <cc:Work
         rdf:about="">
        <dc:format>image/svg+xml</dc:format>
        <dc:type
           rdf:resource="http://purl.org/dc/dcmitype/StillImage" />
        <dc:title></dc:title>
      </cc:Work>
    </rdf:RDF>
  </metadata>
  <g
     inkscape:label="Layer 1"
     inkscape:groupmode="layer"
     id="layer1"
     transform="translate(-22.051742,-151.62635)">
    <path
       inkscape:connector-curvature="0"
       id="path5344"
       d="m 340.64923,387.59068 c -2.17566,-86.03921 -4.53229,-172.25653 0,-206.63664 4.71088,-34.38011 23.19969,-33.84571 27.73198,0.71242 4.52999,34.37995 1.99246,120.24114 -0.5449,205.92405 z"
       style="fill:#ffc000;fill-opacity:1;fill-rule:evenodd;stroke:none" />
    <path
       transform="matrix(2.3195024,0,0,2.2796078,9.8626997,139.44857)"
       inkscape:connector-curvature="0"
       id="path5346"
       d="m 142.611,108.853 c -0.938,-37.743 -1.954,-75.5641 0,-90.6457 2.031,-15.08159 10.002,-14.84716 11.956,0.3126 1.953,15.0815 0.859,52.7464 -0.235,90.3331"
       clip-path="url(#clipEmfPath1)"
       style="fill:none;stroke:#000000;stroke-width:3.36014342px;stroke-linecap:butt;stroke-linejoin:round;stroke-miterlimit:4;stroke-dasharray:none;stroke-opacity:1" />
    <path
       transform="matrix(2.3195024,0,0,2.2796078,9.8626997,139.44857)"
       inkscape:connector-curvature="0"
       id="path5348"
       d="m 155.739,190.747 c 0.937,37.821 1.953,75.564 0,90.645 -2.032,15.082 -10.003,14.848 -11.956,-0.312 -1.954,-15.082 -0.86,-52.747 0.234,-90.333 z"
       clip-path="url(#clipEmfPath1)"
       style="fill:#ffc000;fill-opacity:1;fill-rule:evenodd;stroke:none" />
    <path
       transform="matrix(2.3195024,0,0,2.2796078,9.8626997,139.44857)"
       inkscape:connector-curvature="0"
       id="path5350"
       d="m 155.739,190.747 c 0.937,37.821 1.953,75.564 0,90.645 -2.032,15.082 -10.003,14.848 -11.956,-0.312 -1.954,-15.082 -0.86,-52.747 0.234,-90.333"
       clip-path="url(#clipEmfPath1)"
       style="fill:none;stroke:#000000;stroke-width:3.36014342px;stroke-linecap:butt;stroke-linejoin:round;stroke-miterlimit:4;stroke-dasharray:none;stroke-opacity:1" />
    <path
       inkscape:connector-curvature="0"
       id="path5352"
       d="m 366.92921,384.38332 c 15.22524,-41.68268 30.63368,-83.36617 39.33178,-98.86386 8.88139,-15.49793 17.58188,-11.93517 13.23278,5.34381 -4.35139,17.45726 -22.11416,57.89409 -39.69365,98.50782 z"
       style="fill:#ffc000;fill-opacity:1;fill-rule:evenodd;stroke:none" />
    <path
       inkscape:connector-curvature="0"
       id="path5354"
       d="m 366.92921,384.38332 c 15.22524,-41.68268 30.63368,-83.36617 39.33178,-98.86386 8.88139,-15.49793 17.58188,-11.93517 13.23278,5.34381 -4.35139,17.45726 -22.11416,57.89409 -39.69365,98.50782"
       style="fill:none;stroke:#000000;stroke-width:7.72654438px;stroke-linecap:butt;stroke-linejoin:round;stroke-miterlimit:4;stroke-dasharray:none;stroke-opacity:1" />
    <path
       inkscape:connector-curvature="0"
       id="path5356"
       d="m 390.1312,395.60583 c 20.84306,-39.1888 41.50514,-78.55667 52.38129,-92.80738 10.69295,-14.25079 19.03157,-9.44129 12.32584,7.12535 -6.70803,16.56657 -29.72674,54.50927 -52.56456,92.45247 z"
       style="fill:#ffc000;fill-opacity:1;fill-rule:evenodd;stroke:none" />
    <path
       inkscape:connector-curvature="0"
       id="path5358"
       d="m 390.1312,395.60583 c 20.84306,-39.1888 41.50514,-78.55667 52.38129,-92.80738 10.69295,-14.25079 19.03157,-9.44129 12.32584,7.12535 -6.70803,16.56657 -29.72674,54.50927 -52.56456,92.45247"
       style="fill:none;stroke:#000000;stroke-width:7.72654438px;stroke-linecap:butt;stroke-linejoin:round;stroke-miterlimit:4;stroke-dasharray:none;stroke-opacity:1" />
    <path
       inkscape:connector-curvature="0"
       id="path5360"
       d="m 381.43071,388.65987 c 21.5691,-52.72829 43.13812,-105.45627 55.09979,-125.05111 11.96397,-19.59485 23.01871,-14.42898 16.49396,7.48164 -6.34377,22.08873 -30.81227,73.21351 -55.28068,124.51543 z"
       style="fill:#ffc000;fill-opacity:1;fill-rule:evenodd;stroke:none" />
    <path
       inkscape:connector-curvature="0"
       id="path5362"
       d="m 381.43071,388.65987 c 21.5691,-52.72829 43.13812,-105.45627 55.09979,-125.05111 11.96397,-19.59485 23.01871,-14.42898 16.49396,7.48164 -6.34377,22.08873 -30.81227,73.21351 -55.28068,124.51543"
       style="fill:none;stroke:#000000;stroke-width:7.72654438px;stroke-linecap:butt;stroke-linejoin:round;stroke-miterlimit:4;stroke-dasharray:none;stroke-opacity:1" />
    <path
       inkscape:connector-curvature="0"
       id="path5364"
       d="m 355.14843,382.95856 c 13.77554,-55.04295 27.73198,-110.26488 36.61336,-131.46292 9.06228,-21.02009 20.84306,-17.45725 17.58179,5.16579 -3.26348,22.80131 -20.11931,76.95429 -36.97515,130.92925 z"
       style="fill:#ffc000;fill-opacity:1;fill-rule:evenodd;stroke:none" />
    <path
       inkscape:connector-curvature="0"
       id="path5366"
       d="m 355.14843,382.95856 c 13.77554,-55.04295 27.73198,-110.26488 36.61336,-131.46292 9.06228,-21.02009 20.84306,-17.45725 17.58179,5.16579 -3.26348,22.80131 -20.11931,76.95429 -36.97515,130.92925"
       style="fill:none;stroke:#000000;stroke-width:7.72654438px;stroke-linecap:butt;stroke-linejoin:round;stroke-miterlimit:4;stroke-dasharray:none;stroke-opacity:1" />
    <path
       inkscape:connector-curvature="0"
       id="path5368"
       d="m 401.73101,400.23795 c 30.4504,-48.45239 60.90088,-96.72692 76.12604,-114.00615 15.22524,-17.27899 25.37543,-10.33182 15.04434,10.3319 -10.15018,20.48546 -43.13811,66.80066 -76.30701,113.29421 z"
       style="fill:#ffc000;fill-opacity:1;fill-rule:evenodd;stroke:none" />
    <path
       inkscape:connector-curvature="0"
       id="path5370"
       d="m 401.73101,400.23795 c 30.4504,-48.45239 60.90088,-96.72692 76.12604,-114.00615 15.22524,-17.27899 25.37543,-10.33182 15.04434,10.3319 -10.15018,20.48546 -43.13811,66.80066 -76.30701,113.29421"
       style="fill:none;stroke:#000000;stroke-width:7.72654438px;stroke-linecap:butt;stroke-linejoin:round;stroke-miterlimit:4;stroke-dasharray:none;stroke-opacity:1" />
    <path
       inkscape:connector-curvature="0"
       id="path5372"
       d="m 346.62892,381.53379 c 7.43168,-73.74758 14.68247,-147.4954 22.29505,-176.35343 7.79356,-28.85779 23.56386,-26.36391 23.74476,3.38457 0,29.92666 -11.41891,102.96206 -23.01872,175.81839 z"
       style="fill:#ffc000;fill-opacity:1;fill-rule:evenodd;stroke:none" />
    <path
       inkscape:connector-curvature="0"
       id="path5374"
       d="m 346.62892,381.53379 c 7.43168,-73.74758 14.68247,-147.4954 22.29505,-176.35343 7.79356,-28.85779 23.56386,-26.36391 23.74476,3.38457 0,29.92666 -11.41891,102.96206 -23.01872,175.81839"
       style="fill:none;stroke:#000000;stroke-width:7.72654438px;stroke-linecap:butt;stroke-linejoin:round;stroke-miterlimit:4;stroke-dasharray:none;stroke-opacity:1" />
    <path
       inkscape:connector-curvature="0"
       id="path5376"
       d="m 406.0801,405.76148 c 46.58258,-58.2511 93.16515,-116.6795 115.45782,-136.80867 22.11417,-20.30742 34.25674,-9.97552 17.94367,15.31967 -16.31069,25.29503 -65.97586,80.69515 -115.45783,136.09439 z"
       style="fill:#ffc000;fill-opacity:1;fill-rule:evenodd;stroke:none" />
    <path
       inkscape:connector-curvature="0"
       id="path5378"
       d="m 406.0801,405.76148 c 46.58258,-58.2511 93.16515,-116.6795 115.45782,-136.80867 22.11417,-20.30742 34.25674,-9.97552 17.94367,15.31967 -16.31069,25.29503 -65.97586,80.69515 -115.45783,136.09439"
       style="fill:none;stroke:#000000;stroke-width:7.72654438px;stroke-linecap:butt;stroke-linejoin:round;stroke-miterlimit:4;stroke-dasharray:none;stroke-opacity:1" />
    <path
       inkscape:connector-curvature="0"
       id="path5380"
       d="m 410.4315,413.77656 c 60.35573,-62.52532 120.71385,-125.05088 148.62672,-146.07065 27.91288,-21.02001 40.78149,-7.83801 19.03149,19.77287 -21.56901,27.43279 -85.00742,86.21772 -148.62673,145.1798 z"
       style="fill:#ffc000;fill-opacity:1;fill-rule:evenodd;stroke:none" />
    <path
       inkscape:connector-curvature="0"
       id="path5382"
       d="m 410.4315,413.77656 c 60.35573,-62.52532 120.71385,-125.05088 148.62672,-146.07065 27.91288,-21.02001 40.78149,-7.83801 19.03149,19.77287 -21.56901,27.43279 -85.00742,86.21772 -148.62673,145.1798"
       style="fill:none;stroke:#000000;stroke-width:7.72654438px;stroke-linecap:butt;stroke-linejoin:round;stroke-miterlimit:4;stroke-dasharray:none;stroke-opacity:1" />
    <path
       inkscape:connector-curvature="0"
       id="path5384"
       d="m 441.60555,418.94218 c 40.60059,-19.23766 81.20118,-38.65537 98.42118,-43.82091 17.4009,-5.16563 21.02395,3.563 5.61782,12.82505 -15.40614,9.4421 -56.91366,26.36367 -98.2379,43.46527 z"
       style="fill:#ffc000;fill-opacity:1;fill-rule:evenodd;stroke:none" />
    <path
       inkscape:connector-curvature="0"
       id="path5386"
       d="m 441.60555,418.94218 c 40.60059,-19.23766 81.20118,-38.65537 98.42118,-43.82091 17.4009,-5.16563 21.02395,3.563 5.61782,12.82505 -15.40614,9.4421 -56.91366,26.36367 -98.2379,43.46527"
       style="fill:none;stroke:#000000;stroke-width:7.72654438px;stroke-linecap:butt;stroke-linejoin:round;stroke-miterlimit:4;stroke-dasharray:none;stroke-opacity:1" />
    <path
       inkscape:connector-curvature="0"
       id="path5388"
       d="m 450.30604,442.98975 c 42.77625,-13.89426 85.55249,-27.78843 103.49615,-30.81574 17.76277,-2.85179 20.3003,6.23475 3.80633,13.53861 -16.67485,7.30152 -59.99624,18.88194 -103.13436,30.46009 z"
       style="fill:#ffc000;fill-opacity:1;fill-rule:evenodd;stroke:none" />
    <path
       inkscape:connector-curvature="0"
       id="path5390"
       d="m 450.30604,442.98975 c 42.77625,-13.89426 85.55249,-27.78843 103.49615,-30.81574 17.76277,-2.85179 20.3003,6.23475 3.80633,13.53861 -16.67485,7.30152 -59.99624,18.88194 -103.13436,30.46009"
       style="fill:none;stroke:#000000;stroke-width:7.72654438px;stroke-linecap:butt;stroke-linejoin:round;stroke-miterlimit:4;stroke-dasharray:none;stroke-opacity:1" />
    <path
       inkscape:connector-curvature="0"
       id="path5392"
       d="m 449.03724,431.94728 c 52.92643,-22.9807 105.66959,-46.13693 128.14554,-51.83825 22.47603,-5.8791 26.82504,5.34341 6.70573,16.7437 -20.3003,11.22251 -74.13128,31.35377 -127.96235,51.30491 z"
       style="fill:#ffc000;fill-opacity:1;fill-rule:evenodd;stroke:none" />
    <path
       inkscape:connector-curvature="0"
       id="path5394"
       d="m 449.03724,431.94728 c 52.92643,-22.9807 105.66959,-46.13693 128.14554,-51.83825 22.47603,-5.8791 26.82504,5.34341 6.70573,16.7437 -20.3003,11.22251 -74.13128,31.35377 -127.96235,51.30491"
       style="fill:none;stroke:#000000;stroke-width:7.72654438px;stroke-linecap:butt;stroke-linejoin:round;stroke-miterlimit:4;stroke-dasharray:none;stroke-opacity:1" />
    <path
       inkscape:connector-curvature="0"
       id="path5396"
       d="m 434.35714,410.03569 c 48.93683,-30.10444 97.87604,-60.20962 119.26416,-69.29462 21.5691,-8.90665 27.36781,1.78154 9.06228,15.67596 -18.48873,14.07204 -68.87764,41.50482 -119.26416,68.75982 z"
       style="fill:#ffc000;fill-opacity:1;fill-rule:evenodd;stroke:none" />
    <path
       inkscape:connector-curvature="0"
       id="path5398"
       d="m 434.35714,410.03569 c 48.93683,-30.10444 97.87604,-60.20962 119.26416,-69.29462 21.5691,-8.90665 27.36781,1.78154 9.06228,15.67596 -18.48873,14.07204 -68.87764,41.50482 -119.26416,68.75982"
       style="fill:none;stroke:#000000;stroke-width:7.72654438px;stroke-linecap:butt;stroke-linejoin:round;stroke-miterlimit:4;stroke-dasharray:none;stroke-opacity:1" />
    <path
       inkscape:connector-curvature="0"
       id="path5400"
       d="m 455.56199,454.21226 c 56.00672,-13.71639 112.19672,-27.61065 135.39633,-29.56884 23.0188,-1.96045 25.37535,9.79775 3.44446,17.63504 -21.93318,7.83729 -78.48267,18.34859 -135.03446,29.03541 z"
       style="fill:#ffc000;fill-opacity:1;fill-rule:evenodd;stroke:none" />
    <path
       inkscape:connector-curvature="0"
       id="path5402"
       d="m 455.56199,454.21226 c 56.00672,-13.71639 112.19672,-27.61065 135.39633,-29.56884 23.0188,-1.96045 25.37535,9.79775 3.44446,17.63504 -21.93318,7.83729 -78.48267,18.34859 -135.03446,29.03541"
       style="fill:none;stroke:#000000;stroke-width:7.72654438px;stroke-linecap:butt;stroke-linejoin:round;stroke-miterlimit:4;stroke-dasharray:none;stroke-opacity:1" />
    <path
       inkscape:connector-curvature="0"
       id="path5404"
       d="m 429.09881,403.08748 c 57.63962,-47.91735 115.27694,-95.65756 141.19743,-111.15525 25.91811,-15.49769 35.52545,-2.85025 14.31822,18.52613 -21.02625,21.55417 -81.0202,66.08767 -140.83317,110.44428 z"
       style="fill:#ffc000;fill-opacity:1;fill-rule:evenodd;stroke:none" />
    <path
       inkscape:connector-curvature="0"
       id="path5406"
       d="m 429.09881,403.08748 c 57.63962,-47.91735 115.27694,-95.65756 141.19743,-111.15525 25.91811,-15.49769 35.52545,-2.85025 14.31822,18.52613 -21.02625,21.55417 -81.0202,66.08767 -140.83317,110.44428"
       style="fill:none;stroke:#000000;stroke-width:7.72654438px;stroke-linecap:butt;stroke-linejoin:round;stroke-miterlimit:4;stroke-dasharray:none;stroke-opacity:1" />
    <path
       inkscape:connector-curvature="0"
       id="path5408"
       d="m 454.65744,461.16048 c 74.67404,-9.97553 149.53136,-19.77328 179.80087,-19.0598 30.2695,0.71161 31.53822,16.21027 1.99476,23.33409 -29.54355,6.94822 -104.40079,12.64953 -179.25811,18.34851 z"
       style="fill:#ffc000;fill-opacity:1;fill-rule:evenodd;stroke:none" />
    <path
       inkscape:connector-curvature="0"
       id="path5410"
       d="m 454.65744,461.16048 c 74.67404,-9.97553 149.53136,-19.77328 179.80087,-19.0598 30.2695,0.71161 31.53822,16.21027 1.99476,23.33409 -29.54355,6.94822 -104.40079,12.64953 -179.25811,18.34851"
       style="fill:none;stroke:#000000;stroke-width:7.72654438px;stroke-linecap:butt;stroke-linejoin:round;stroke-miterlimit:4;stroke-dasharray:none;stroke-opacity:1" />
    <path
       transform="matrix(2.3195024,0,0,2.2796078,9.8626997,139.44857)"
       inkscape:connector-curvature="0"
       id="path5412"
       d="m 190.59,144.955 c 37.822,-1.563 75.565,-3.048 90.646,-1.328 15.082,1.797 15.004,9.767 -0.078,11.955 -15.082,2.188 -52.746,1.641 -90.333,1.016 z"
       clip-path="url(#clipEmfPath1)"
       style="fill:#ffc000;fill-opacity:1;fill-rule:evenodd;stroke:none" />
    <path
       transform="matrix(2.3195024,0,0,2.2796078,9.8626997,139.44857)"
       inkscape:connector-curvature="0"
       id="path5414"
       d="m 190.59,144.955 c 37.822,-1.563 75.565,-3.048 90.646,-1.328 15.082,1.797 15.004,9.767 -0.078,11.955 -15.082,2.188 -52.746,1.641 -90.333,1.016"
       clip-path="url(#clipEmfPath1)"
       style="fill:none;stroke:#000000;stroke-width:3.36014342px;stroke-linecap:butt;stroke-linejoin:round;stroke-miterlimit:4;stroke-dasharray:none;stroke-opacity:1" />
    <path
       inkscape:connector-curvature="0"
       id="path5416"
       d="m 424.9307,563.05439 c 19.03149,40.08006 38.24395,80.16011 43.13811,97.26172 5.07505,17.09935 -3.80633,20.48457 -13.23048,5.34341 -9.24555,-15.31893 -25.92041,-56.29033 -42.59535,-97.26172 z"
       style="fill:#ffc000;fill-opacity:1;fill-rule:evenodd;stroke:none" />
    <path
       inkscape:connector-curvature="0"
       id="path5418"
       d="m 424.9307,563.05439 c 19.03149,40.08006 38.24395,80.16011 43.13811,97.26172 5.07505,17.09935 -3.80633,20.48457 -13.23048,5.34341 -9.24555,-15.31893 -25.92041,-56.29033 -42.59535,-97.26172"
       style="fill:none;stroke:#000000;stroke-width:7.72654438px;stroke-linecap:butt;stroke-linejoin:round;stroke-miterlimit:4;stroke-dasharray:none;stroke-opacity:1" />
    <path
       inkscape:connector-curvature="0"
       id="path5420"
       d="m 398.28654,573.02992 c 13.59465,42.21837 27.18922,84.4344 29.90764,102.07178 2.7185,17.63504 -6.52475,19.95114 -13.77546,3.56074 -7.25079,-16.38814 -18.30783,-59.13985 -29.36257,-101.89166 z"
       style="fill:#ffc000;fill-opacity:1;fill-rule:evenodd;stroke:none" />
    <path
       inkscape:connector-curvature="0"
       id="path5422"
       d="m 398.28654,573.02992 c 13.59465,42.21837 27.18922,84.4344 29.90764,102.07178 2.7185,17.63504 -6.52475,19.95114 -13.77546,3.56074 -7.25079,-16.38814 -18.30783,-59.13985 -29.36257,-101.89166"
       style="fill:none;stroke:#000000;stroke-width:7.72654438px;stroke-linecap:butt;stroke-linejoin:round;stroke-miterlimit:4;stroke-dasharray:none;stroke-opacity:1" />
    <path
       inkscape:connector-curvature="0"
       id="path5424"
       d="m 409.70545,571.9608 c 22.65693,52.1939 45.31378,104.56567 50.93167,126.65278 5.62012,22.26715 -5.79879,26.36592 -17.2177,6.23466 -11.23801,-19.95105 -30.81457,-73.21181 -50.38882,-126.47491 z"
       style="fill:#ffc000;fill-opacity:1;fill-rule:evenodd;stroke:none" />
    <path
       inkscape:connector-curvature="0"
       id="path5426"
       d="m 409.70545,571.9608 c 22.65693,52.1939 45.31378,104.56567 50.93167,126.65278 5.62012,22.26715 -5.79879,26.36592 -17.2177,6.23466 -11.23801,-19.95105 -30.81457,-73.21181 -50.38882,-126.47491"
       style="fill:none;stroke:#000000;stroke-width:7.72654438px;stroke-linecap:butt;stroke-linejoin:round;stroke-miterlimit:4;stroke-dasharray:none;stroke-opacity:1" />
    <path
       inkscape:connector-curvature="0"
       id="path5428"
       d="m 434.17387,555.75053 c 29.90772,48.6309 59.81535,97.26172 68.69674,118.45984 8.6981,21.19803 -2.17574,26.71923 -16.13218,8.55076 -14.13733,-18.34851 -41.14565,-68.22639 -68.15159,-118.28197 z"
       style="fill:#ffc000;fill-opacity:1;fill-rule:evenodd;stroke:none" />
    <path
       inkscape:connector-curvature="0"
       id="path5430"
       d="m 434.17387,555.75053 c 29.90772,48.6309 59.81535,97.26172 68.69674,118.45984 8.6981,21.19803 -2.17574,26.71923 -16.13218,8.55076 -14.13733,-18.34851 -41.14565,-68.22639 -68.15159,-118.28197"
       style="fill:none;stroke:#000000;stroke-width:7.72654438px;stroke-linecap:butt;stroke-linejoin:round;stroke-miterlimit:4;stroke-dasharray:none;stroke-opacity:1" />
    <path
       inkscape:connector-curvature="0"
       id="path5432"
       d="m 386.86763,577.8399 c 13.23278,55.39908 26.46318,110.79807 28.09385,133.60099 1.81379,22.80067 -10.33108,24.76112 -17.94366,3.20518 -7.61266,-21.73155 -17.58187,-77.48845 -27.55108,-133.24543 z"
       style="fill:#ffc000;fill-opacity:1;fill-rule:evenodd;stroke:none" />
    <path
       inkscape:connector-curvature="0"
       id="path5434"
       d="m 386.86763,577.8399 c 13.23278,55.39908 26.46318,110.79807 28.09385,133.60099 1.81379,22.80067 -10.33108,24.76112 -17.94366,3.20518 -7.61266,-21.73155 -17.58187,-77.48845 -27.55108,-133.24543"
       style="fill:none;stroke:#000000;stroke-width:7.72654438px;stroke-linecap:butt;stroke-linejoin:round;stroke-miterlimit:4;stroke-dasharray:none;stroke-opacity:1" />
    <path
       inkscape:connector-curvature="0"
       id="path5436"
       d="m 441.24377,550.94055 c 47.85129,57.18166 95.70029,114.54119 111.10881,140.1913 15.22516,25.65245 2.35425,34.91451 -19.21477,13.89652 -21.5691,-21.02026 -65.97593,-80.51802 -110.19958,-140.19357 z"
       style="fill:#ffc000;fill-opacity:1;fill-rule:evenodd;stroke:none" />
    <path
       inkscape:connector-curvature="0"
       id="path5438"
       d="m 441.24377,550.94055 c 47.85129,57.18166 95.70029,114.54119 111.10881,140.1913 15.22516,25.65245 2.35425,34.91451 -19.21477,13.89652 -21.5691,-21.02026 -65.97593,-80.51802 -110.19958,-140.19357"
       style="fill:none;stroke:#000000;stroke-width:7.72654438px;stroke-linecap:butt;stroke-linejoin:round;stroke-miterlimit:4;stroke-dasharray:none;stroke-opacity:1" />
    <path
       inkscape:connector-curvature="0"
       id="path5440"
       d="m 379.98101,576.94857 c 8.88139,73.5698 17.94366,147.31738 16.67494,177.06626 -1.08783,29.74888 -17.03911,30.63796 -23.74475,1.60263 -6.70565,-29.21319 -11.41891,-102.78299 -16.13218,-176.53058 z"
       style="fill:#ffc000;fill-opacity:1;fill-rule:evenodd;stroke:none" />
    <path
       inkscape:connector-curvature="0"
       id="path5442"
       d="m 379.98101,576.94857 c 8.88139,73.5698 17.94366,147.31738 16.67494,177.06626 -1.08783,29.74888 -17.03911,30.63796 -23.74475,1.60263 -6.70565,-29.21319 -11.41891,-102.78299 -16.13218,-176.53058"
       style="fill:none;stroke:#000000;stroke-width:7.72654438px;stroke-linecap:butt;stroke-linejoin:round;stroke-miterlimit:4;stroke-dasharray:none;stroke-opacity:1" />
    <path
       inkscape:connector-curvature="0"
       id="path5444"
       d="m 459.36832,496.60841 c 42.41446,14.96329 84.64564,30.10679 100.59684,38.65529 15.768,8.72863 11.96167,17.2794 -5.6202,13.00518 -17.58179,-4.45441 -58.72515,-21.7338 -100.05169,-39.01093 z"
       style="fill:#ffc000;fill-opacity:1;fill-rule:evenodd;stroke:none" />
    <path
       inkscape:connector-curvature="0"
       id="path5446"
       d="m 459.36832,496.60841 c 42.41446,14.96329 84.64564,30.10679 100.59684,38.65529 15.768,8.72863 11.96167,17.2794 -5.6202,13.00518 -17.58179,-4.45441 -58.72515,-21.7338 -100.05169,-39.01093"
       style="fill:none;stroke:#000000;stroke-width:7.72654438px;stroke-linecap:butt;stroke-linejoin:round;stroke-miterlimit:4;stroke-dasharray:none;stroke-opacity:1" />
    <path
       inkscape:connector-curvature="0"
       id="path5448"
       d="m 447.76852,519.41134 c 40.05782,20.48448 79.93237,40.79126 94.61476,51.48035 14.49929,10.50895 9.60513,18.52637 -7.25071,11.93606 -16.85583,-6.41487 -55.46396,-29.03767 -94.06978,-51.48269 z"
       style="fill:#ffc000;fill-opacity:1;fill-rule:evenodd;stroke:none" />
    <path
       inkscape:connector-curvature="0"
       id="path5450"
       d="m 447.76852,519.41134 c 40.05782,20.48448 79.93237,40.79126 94.61476,51.48035 14.49929,10.50895 9.60513,18.52637 -7.25071,11.93606 -16.85583,-6.41487 -55.46396,-29.03767 -94.06978,-51.48269"
       style="fill:none;stroke:#000000;stroke-width:7.72654438px;stroke-linecap:butt;stroke-linejoin:round;stroke-miterlimit:4;stroke-dasharray:none;stroke-opacity:1" />
    <path
       inkscape:connector-curvature="0"
       id="path5452"
       d="m 455.01923,510.86049 c 53.65009,21.19804 107.30018,42.39616 127.23868,54.1521 19.93843,11.75819 14.6824,22.6228 -7.61266,16.21027 -22.47595,-6.23475 -74.67634,-30.28231 -126.69584,-54.32988 z"
       style="fill:#ffc000;fill-opacity:1;fill-rule:evenodd;stroke:none" />
    <path
       inkscape:connector-curvature="0"
       id="path5454"
       d="m 455.01923,510.86049 c 53.65009,21.19804 107.30018,42.39616 127.23868,54.1521 19.93843,11.75819 14.6824,22.6228 -7.61266,16.21027 -22.47595,-6.23475 -74.67634,-30.28231 -126.69584,-54.32988"
       style="fill:none;stroke:#000000;stroke-width:7.72654438px;stroke-linecap:butt;stroke-linejoin:round;stroke-miterlimit:4;stroke-dasharray:none;stroke-opacity:1" />
    <path
       inkscape:connector-curvature="0"
       id="path5456"
       d="m 460.63712,485.03026 c 56.18992,13.53861 112.37754,27.07722 133.76566,35.98362 21.38812,8.90641 17.94366,20.48457 -5.25594,17.2794 -23.0211,-3.20736 -78.12089,-19.77328 -133.22068,-36.3392 z"
       style="fill:#ffc000;fill-opacity:1;fill-rule:evenodd;stroke:none" />
    <path
       inkscape:connector-curvature="0"
       id="path5458"
       d="m 460.63712,485.03026 c 56.18992,13.53861 112.37754,27.07722 133.76566,35.98362 21.38812,8.90641 17.94366,20.48457 -5.25594,17.2794 -23.0211,-3.20736 -78.12089,-19.77328 -133.22068,-36.3392"
       style="fill:none;stroke:#000000;stroke-width:7.72654438px;stroke-linecap:butt;stroke-linejoin:round;stroke-miterlimit:4;stroke-dasharray:none;stroke-opacity:1" />
    <path
       inkscape:connector-curvature="0"
       id="path5460"
       d="m 443.23853,530.81163 c 49.1178,29.92666 98.2379,59.85341 115.81969,74.8167 17.58179,14.96337 10.69287,24.76112 -10.33108,14.78559 -20.84536,-9.97561 -68.15159,-42.57402 -115.27693,-74.99456 z"
       style="fill:#ffc000;fill-opacity:1;fill-rule:evenodd;stroke:none" />
    <path
       inkscape:connector-curvature="0"
       id="path5462"
       d="m 443.23853,530.81163 c 49.1178,29.92666 98.2379,59.85341 115.81969,74.8167 17.58179,14.96337 10.69287,24.76112 -10.33108,14.78559 -20.84536,-9.97561 -68.15159,-42.57402 -115.27693,-74.99456"
       style="fill:none;stroke:#000000;stroke-width:7.72654438px;stroke-linecap:butt;stroke-linejoin:round;stroke-miterlimit:4;stroke-dasharray:none;stroke-opacity:1" />
    <path
       inkscape:connector-curvature="0"
       id="path5464"
       d="m 460.27525,478.43995 c 75.03822,7.30386 150.07643,14.60772 179.439,22.08937 29.36496,7.48165 26.82743,22.97845 -3.44208,23.15623 -30.45048,0.1777 -104.58406,-11.22251 -178.89631,-22.44502 z"
       style="fill:#ffc000;fill-opacity:1;fill-rule:evenodd;stroke:none" />
    <path
       inkscape:connector-curvature="0"
       id="path5466"
       d="m 460.27525,478.43995 c 75.03822,7.30386 150.07643,14.60772 179.439,22.08937 29.36496,7.48165 26.82743,22.97845 -3.44208,23.15623 -30.45048,0.1777 -104.58406,-11.22251 -178.89631,-22.44502"
       style="fill:none;stroke:#000000;stroke-width:7.72654438px;stroke-linecap:butt;stroke-linejoin:round;stroke-miterlimit:4;stroke-dasharray:none;stroke-opacity:1" />
    <path
       inkscape:connector-curvature="0"
       id="path5468"
       d="m 437.61833,535.08592 c 59.27029,45.78129 118.5405,91.56267 139.20266,113.47199 20.66208,21.73381 9.96921,33.48975 -15.58711,17.63504 C 535.49436,650.1628 479.12585,601.35178 422.75496,552.72096 Z"
       style="fill:#ffc000;fill-opacity:1;fill-rule:evenodd;stroke:none" />
    <path
       inkscape:connector-curvature="0"
       id="path5470"
       d="m 437.61833,535.08592 c 59.27029,45.78129 118.5405,91.56267 139.20266,113.47199 20.66208,21.73381 9.96921,33.48975 -15.58711,17.63504 C 535.49436,650.1628 479.12585,601.35178 422.75496,552.72096"
       style="fill:none;stroke:#000000;stroke-width:7.72654438px;stroke-linecap:butt;stroke-linejoin:round;stroke-miterlimit:4;stroke-dasharray:none;stroke-opacity:1" />
    <path
       inkscape:connector-curvature="0"
       id="path5472"
       d="m 429.28209,539.36239 c 63.6193,59.13994 127.23861,118.45984 148.80762,146.07049 21.38813,27.43278 7.79356,39.90227 -20.11932,18.70415 -27.91287,-21.19804 -87.90682,-83.54533 -147.71987,-146.0704 z"
       style="fill:#ffc000;fill-opacity:1;fill-rule:evenodd;stroke:none" />
    <path
       inkscape:connector-curvature="0"
       id="path5474"
       d="m 429.28209,539.36239 c 63.6193,59.13994 127.23861,118.45984 148.80762,146.07049 21.38813,27.43278 7.79356,39.90227 -20.11932,18.70415 -27.91287,-21.19804 -87.90682,-83.54533 -147.71987,-146.0704"
       style="fill:none;stroke:#000000;stroke-width:7.72654438px;stroke-linecap:butt;stroke-linejoin:round;stroke-miterlimit:4;stroke-dasharray:none;stroke-opacity:1" />
    <path
       inkscape:connector-curvature="0"
       id="path5476"
       d="m 347.35496,577.12643 c -15.22525,41.50482 -30.63138,83.18968 -39.51276,98.68648 -8.70049,15.67685 -17.4009,11.93607 -13.04951,-5.34341 4.34902,-17.27939 22.11178,-57.89521 39.69366,-98.33083 z"
       style="fill:#ffc000;fill-opacity:1;fill-rule:evenodd;stroke:none" />
    <path
       inkscape:connector-curvature="0"
       id="path5478"
       d="m 347.35496,577.12643 c -15.22525,41.50482 -30.63138,83.18968 -39.51276,98.68648 -8.70049,15.67685 -17.4009,11.93607 -13.04951,-5.34341 4.34902,-17.27939 22.11178,-57.89521 39.69366,-98.33083"
       style="fill:none;stroke:#000000;stroke-width:7.72654438px;stroke-linecap:butt;stroke-linejoin:round;stroke-miterlimit:4;stroke-dasharray:none;stroke-opacity:1" />
    <path
       inkscape:connector-curvature="0"
       id="path5480"
       d="m 324.15527,565.72606 c -20.84536,39.36658 -41.50753,78.55756 -52.38367,92.98524 -10.69287,14.25209 -19.03149,9.4421 -12.32347,-7.12381 6.70565,-16.56818 29.54347,-54.50992 52.56218,-92.45174 z"
       style="fill:#ffc000;fill-opacity:1;fill-rule:evenodd;stroke:none" />
    <path
       inkscape:connector-curvature="0"
       id="path5482"
       d="m 324.15527,565.72606 c -20.84536,39.36658 -41.50753,78.55756 -52.38367,92.98524 -10.69287,14.25209 -19.03149,9.4421 -12.32347,-7.12381 6.70565,-16.56818 29.54347,-54.50992 52.56218,-92.45174"
       style="fill:none;stroke:#000000;stroke-width:7.72654438px;stroke-linecap:butt;stroke-linejoin:round;stroke-miterlimit:4;stroke-dasharray:none;stroke-opacity:1" />
    <path
       inkscape:connector-curvature="0"
       id="path5484"
       d="m 332.85567,572.85214 c -21.56901,52.72733 -43.13803,105.45466 -55.10209,125.05015 -11.96167,19.59557 -23.01871,14.42768 -16.49396,-7.65943 6.34386,-21.91159 30.81227,-73.21416 55.28307,-124.5168 z"
       style="fill:#ffc000;fill-opacity:1;fill-rule:evenodd;stroke:none" />
    <path
       inkscape:connector-curvature="0"
       id="path5486"
       d="m 332.85567,572.85214 c -21.56901,52.72733 -43.13803,105.45466 -55.10209,125.05015 -11.96167,19.59557 -23.01871,14.42768 -16.49396,-7.65943 6.34386,-21.91159 30.81227,-73.21416 55.28307,-124.5168"
       style="fill:none;stroke:#000000;stroke-width:7.72654438px;stroke-linecap:butt;stroke-linejoin:round;stroke-miterlimit:4;stroke-dasharray:none;stroke-opacity:1" />
    <path
       inkscape:connector-curvature="0"
       id="path5488"
       d="m 358.95476,578.37333 c -13.77554,55.22121 -27.55109,110.44476 -36.43247,131.46276 -9.06228,21.02025 -20.84298,17.6373 -17.57949,-5.16563 3.26127,-22.6228 20.1171,-76.77489 36.97523,-130.92925 z"
       style="fill:#ffc000;fill-opacity:1;fill-rule:evenodd;stroke:none" />
    <path
       inkscape:connector-curvature="0"
       id="path5490"
       d="m 358.95476,578.37333 c -13.77554,55.22121 -27.55109,110.44476 -36.43247,131.46276 -9.06228,21.02025 -20.84298,17.6373 -17.57949,-5.16563 3.26127,-22.6228 20.1171,-76.77489 36.97523,-130.92925"
       style="fill:none;stroke:#000000;stroke-width:7.72654438px;stroke-linecap:butt;stroke-linejoin:round;stroke-miterlimit:4;stroke-dasharray:none;stroke-opacity:1" />
    <path
       inkscape:connector-curvature="0"
       id="path5492"
       d="m 312.55546,561.27172 c -30.45048,48.27526 -61.08416,96.55051 -76.12703,113.82998 -15.22524,17.27713 -25.37534,10.50896 -15.0441,-10.15565 10.15019,-20.66243 43.13886,-66.97715 76.30776,-113.29195 z"
       style="fill:#ffc000;fill-opacity:1;fill-rule:evenodd;stroke:none" />
    <path
       inkscape:connector-curvature="0"
       id="path5494"
       d="m 312.55546,561.27172 c -30.45048,48.27526 -61.08416,96.55051 -76.12703,113.82998 -15.22524,17.27713 -25.37534,10.50896 -15.0441,-10.15565 10.15019,-20.66243 43.13886,-66.97715 76.30776,-113.29195"
       style="fill:none;stroke:#000000;stroke-width:7.72654438px;stroke-linecap:butt;stroke-linejoin:round;stroke-miterlimit:4;stroke-dasharray:none;stroke-opacity:1" />
    <path
       inkscape:connector-curvature="0"
       id="path5496"
       d="m 367.65517,579.97596 c -7.43169,73.74758 -14.6824,147.49743 -22.47595,176.17719 -7.61258,28.85754 -23.38059,26.54145 -23.56148,-3.38522 0,-29.92674 11.41891,-102.78525 23.01871,-175.6415 z"
       style="fill:#ffc000;fill-opacity:1;fill-rule:evenodd;stroke:none" />
    <path
       inkscape:connector-curvature="0"
       id="path5498"
       d="m 367.65517,579.97596 c -7.43169,73.74758 -14.6824,147.49743 -22.47595,176.17719 -7.61258,28.85754 -23.38059,26.54145 -23.56148,-3.38522 0,-29.92674 11.41891,-102.78525 23.01871,-175.6415"
       style="fill:none;stroke:#000000;stroke-width:7.72654438px;stroke-linecap:butt;stroke-linejoin:round;stroke-miterlimit:4;stroke-dasharray:none;stroke-opacity:1" />
    <path
       inkscape:connector-curvature="0"
       id="path5500"
       d="m 308.20407,555.75053 c -46.58258,58.25078 -93.16351,116.49938 -115.45742,136.80835 -22.11301,20.129 -34.25673,9.79548 -17.94415,-15.3212 16.31282,-25.29455 65.79479,-80.69354 115.4579,-136.09488 z"
       style="fill:#ffc000;fill-opacity:1;fill-rule:evenodd;stroke:none" />
    <path
       inkscape:connector-curvature="0"
       id="path5502"
       d="m 308.20407,555.75053 c -46.58258,58.25078 -93.16351,116.49938 -115.45742,136.80835 -22.11301,20.129 -34.25673,9.79548 -17.94415,-15.3212 16.31282,-25.29455 65.79479,-80.69354 115.4579,-136.09488"
       style="fill:none;stroke:#000000;stroke-width:7.72654438px;stroke-linecap:butt;stroke-linejoin:round;stroke-miterlimit:4;stroke-dasharray:none;stroke-opacity:1" />
    <path
       inkscape:connector-curvature="0"
       id="path5504"
       d="m 303.85497,547.55533 c -60.35812,62.52507 -120.71476,125.05249 -148.62771,146.0704 -27.91288,21.19812 -40.7819,7.83964 -19.21288,-19.59323 21.7504,-27.43278 85.18881,-86.39711 148.8091,-145.18132 z"
       style="fill:#ffc000;fill-opacity:1;fill-rule:evenodd;stroke:none" />
    <path
       inkscape:connector-curvature="0"
       id="path5506"
       d="m 303.85497,547.55533 c -60.35812,62.52507 -120.71476,125.05249 -148.62771,146.0704 -27.91288,21.19812 -40.7819,7.83964 -19.21288,-19.59323 21.7504,-27.43278 85.18881,-86.39711 148.8091,-145.18132"
       style="fill:none;stroke:#000000;stroke-width:7.72654438px;stroke-linecap:butt;stroke-linejoin:round;stroke-miterlimit:4;stroke-dasharray:none;stroke-opacity:1" />
    <path
       inkscape:connector-curvature="0"
       id="path5508"
       d="m 272.49764,542.38979 c -40.4192,19.41762 -81.01979,38.83307 -98.23881,43.9987 -17.40024,5.1678 -21.02535,-3.56074 -5.6188,-13.00292 15.40638,-9.26206 56.73202,-26.36367 98.23979,-43.28749 z"
       style="fill:#ffc000;fill-opacity:1;fill-rule:evenodd;stroke:none" />
    <path
       inkscape:connector-curvature="0"
       id="path5510"
       d="m 272.49764,542.38979 c -40.4192,19.41762 -81.01979,38.83307 -98.23881,43.9987 -17.40024,5.1678 -21.02535,-3.56074 -5.6188,-13.00292 15.40638,-9.26206 56.73202,-26.36367 98.23979,-43.28749"
       style="fill:none;stroke:#000000;stroke-width:7.72654438px;stroke-linecap:butt;stroke-linejoin:round;stroke-miterlimit:4;stroke-dasharray:none;stroke-opacity:1" />
    <path
       inkscape:connector-curvature="0"
       id="path5512"
       d="m 263.97812,518.34214 c -42.77493,14.07204 -85.55051,27.96629 -103.49459,30.81808 -17.76276,2.84945 -20.30029,-6.05696 -3.80633,-13.53861 16.67535,-7.30386 59.81347,-18.70423 103.13272,-30.28457 z"
       style="fill:#ffc000;fill-opacity:1;fill-rule:evenodd;stroke:none" />
    <path
       inkscape:connector-curvature="0"
       id="path5514"
       d="m 263.97812,518.34214 c -42.77493,14.07204 -85.55051,27.96629 -103.49459,30.81808 -17.76276,2.84945 -20.30029,-6.05696 -3.80633,-13.53861 16.67535,-7.30386 59.81347,-18.70423 103.13272,-30.28457"
       style="fill:none;stroke:#000000;stroke-width:7.72654438px;stroke-linecap:butt;stroke-linejoin:round;stroke-miterlimit:4;stroke-dasharray:none;stroke-opacity:1" />
    <path
       inkscape:connector-curvature="0"
       id="path5516"
       d="m 265.24684,529.38687 c -52.92503,23.15623 -105.85072,46.13701 -128.14488,52.01377 -22.47521,5.87918 -26.82521,-5.34333 -6.7063,-16.7437 20.30021,-11.40029 74.13218,-31.35143 127.96456,-51.48035 z"
       style="fill:#ffc000;fill-opacity:1;fill-rule:evenodd;stroke:none" />
    <path
       inkscape:connector-curvature="0"
       id="path5518"
       d="m 265.24684,529.38687 c -52.92503,23.15623 -105.85072,46.13701 -128.14488,52.01377 -22.47521,5.87918 -26.82521,-5.34333 -6.7063,-16.7437 20.30021,-11.40029 74.13218,-31.35143 127.96456,-51.48035"
       style="fill:none;stroke:#000000;stroke-width:7.72654438px;stroke-linecap:butt;stroke-linejoin:round;stroke-miterlimit:4;stroke-dasharray:none;stroke-opacity:1" />
    <path
       inkscape:connector-curvature="0"
       id="path5520"
       d="m 279.92932,551.29619 c -48.93847,30.28458 -98.05791,60.3891 -119.44579,69.29551 -21.38771,8.90641 -27.18782,-1.60254 -8.88138,-15.67684 18.48782,-14.07204 68.87599,-41.32704 119.26489,-68.58204 z"
       style="fill:#ffc000;fill-opacity:1;fill-rule:evenodd;stroke:none" />
    <path
       inkscape:connector-curvature="0"
       id="path5522"
       d="m 279.92932,551.29619 c -48.93847,30.28458 -98.05791,60.3891 -119.44579,69.29551 -21.38771,8.90641 -27.18782,-1.60254 -8.88138,-15.67684 18.48782,-14.07204 68.87599,-41.32704 119.26489,-68.58204"
       style="fill:none;stroke:#000000;stroke-width:7.72654438px;stroke-linecap:butt;stroke-linejoin:round;stroke-miterlimit:4;stroke-dasharray:none;stroke-opacity:1" />
    <path
       inkscape:connector-curvature="0"
       id="path5524"
       d="m 258.72209,507.29749 c -56.00672,13.71639 -112.19499,27.43279 -135.39542,29.39324 -23.01896,2.13597 -25.375351,-9.79775 -3.44373,-17.45725 21.93163,-7.83956 78.48243,-18.52638 135.03282,-29.03759 z"
       style="fill:#ffc000;fill-opacity:1;fill-rule:evenodd;stroke:none" />
    <path
       inkscape:connector-curvature="0"
       id="path5526"
       d="m 258.72209,507.29749 c -56.00672,13.71639 -112.19499,27.43279 -135.39542,29.39324 -23.01896,2.13597 -25.375351,-9.79775 -3.44373,-17.45725 21.93163,-7.83956 78.48243,-18.52638 135.03282,-29.03759"
       style="fill:none;stroke:#000000;stroke-width:7.72654438px;stroke-linecap:butt;stroke-linejoin:round;stroke-miterlimit:4;stroke-dasharray:none;stroke-opacity:1" />
    <path
       inkscape:connector-curvature="0"
       id="path5528"
       d="m 285.18527,558.42219 c -57.63822,47.73957 -115.27644,95.65926 -141.1957,111.15598 -25.9191,15.31902 -35.52554,2.84953 -14.50019,-18.70416 21.20649,-21.55368 81.20118,-65.91029 141.01349,-110.26463 z"
       style="fill:#ffc000;fill-opacity:1;fill-rule:evenodd;stroke:none" />
    <path
       inkscape:connector-curvature="0"
       id="path5530"
       d="m 285.18527,558.42219 c -57.63822,47.73957 -115.27644,95.65926 -141.1957,111.15598 -25.9191,15.31902 -35.52554,2.84953 -14.50019,-18.70416 21.20649,-21.55368 81.20118,-65.91029 141.01349,-110.26463"
       style="fill:none;stroke:#000000;stroke-width:7.72654438px;stroke-linecap:butt;stroke-linejoin:round;stroke-miterlimit:4;stroke-dasharray:none;stroke-opacity:1" />
    <path
       inkscape:connector-curvature="0"
       id="path5532"
       d="M 259.62903,500.3492 C 184.77146,510.14694 110.09537,520.12255 79.826024,519.41134 49.557011,518.69811 48.288289,503.0232 77.832412,496.07498 107.37662,489.12669 182.23394,483.42771 257.0915,477.54861 Z"
       style="fill:#ffc000;fill-opacity:1;fill-rule:evenodd;stroke:none" />
    <path
       inkscape:connector-curvature="0"
       id="path5534"
       d="M 259.62903,500.3492 C 184.77146,510.14694 110.09537,520.12255 79.826024,519.41134 49.557011,518.69811 48.288289,503.0232 77.832412,496.07498 107.37662,489.12669 182.23394,483.42771 257.0915,477.54861"
       style="fill:none;stroke:#000000;stroke-width:7.72654438px;stroke-linecap:butt;stroke-linejoin:round;stroke-miterlimit:4;stroke-dasharray:none;stroke-opacity:1" />
    <path
       inkscape:connector-curvature="0"
       id="path5536"
       d="m 262.34745,491.62057 c -87.72609,3.38522 -175.271127,6.9483 -210.252913,2.85179 -34.981785,-3.91865 -34.80048,-22.26716 0.180812,-27.07714 34.981868,-4.98776 122.345681,-3.74086 209.529011,-2.49388 z"
       style="fill:#ffc000;fill-opacity:1;fill-rule:evenodd;stroke:none" />
    <path
       transform="matrix(2.3195024,0,0,2.2796078,9.8626997,139.44857)"
       inkscape:connector-curvature="0"
       id="path5538"
       d="m 108.853,154.488 c -37.8211,1.485 -75.5641,3.048 -90.6457,1.251 -15.08159,-1.719 -15.00344,-9.768 0.0781,-11.878 15.0816,-2.188 52.7465,-1.641 90.3336,-1.094"
       clip-path="url(#clipEmfPath1)"
       style="fill:none;stroke:#000000;stroke-width:3.36014342px;stroke-linecap:butt;stroke-linejoin:round;stroke-miterlimit:4;stroke-dasharray:none;stroke-opacity:1" />
    <path
       inkscape:connector-curvature="0"
       id="path5540"
       d="m 289.35347,398.45762 c -19.03157,-40.08102 -38.24396,-80.16156 -43.13811,-97.26245 -5.0744,-17.10096 3.80624,-20.66347 13.0518,-5.34413 9.42415,15.31966 26.09909,56.29081 42.77394,97.08305 z"
       style="fill:#ffc000;fill-opacity:1;fill-rule:evenodd;stroke:none" />
    <path
       inkscape:connector-curvature="0"
       id="path5542"
       d="m 289.35347,398.45762 c -19.03157,-40.08102 -38.24396,-80.16156 -43.13811,-97.26245 -5.0744,-17.10096 3.80624,-20.66347 13.0518,-5.34413 9.42415,15.31966 26.09909,56.29081 42.77394,97.08305"
       style="fill:none;stroke:#000000;stroke-width:7.72654438px;stroke-linecap:butt;stroke-linejoin:round;stroke-miterlimit:4;stroke-dasharray:none;stroke-opacity:1" />
    <path
       inkscape:connector-curvature="0"
       id="path5544"
       d="m 315.81665,388.48201 c -13.41138,-42.21853 -27.00594,-84.43666 -29.72445,-102.07194 -2.71842,-17.63552 6.52476,-19.95114 13.77555,-3.56276 7.24841,16.38854 18.30553,59.14075 29.36257,101.71606 z"
       style="fill:#ffc000;fill-opacity:1;fill-rule:evenodd;stroke:none" />
    <path
       inkscape:connector-curvature="0"
       id="path5546"
       d="m 315.81665,388.48201 c -13.41138,-42.21853 -27.00594,-84.43666 -29.72445,-102.07194 -2.71842,-17.63552 6.52476,-19.95114 13.77555,-3.56276 7.24841,16.38854 18.30553,59.14075 29.36257,101.71606"
       style="fill:none;stroke:#000000;stroke-width:7.72654438px;stroke-linecap:butt;stroke-linejoin:round;stroke-miterlimit:4;stroke-dasharray:none;stroke-opacity:1" />
    <path
       inkscape:connector-curvature="0"
       id="path5548"
       d="M 304.57863,389.55113 C 281.92178,337.17856 259.26716,284.9849 253.64704,262.71815 c -5.61782,-22.08873 5.80109,-26.18588 17.22,-6.23475 11.23794,20.12917 30.81227,73.39154 50.38653,126.65294 z"
       style="fill:#ffc000;fill-opacity:1;fill-rule:evenodd;stroke:none" />
    <path
       inkscape:connector-curvature="0"
       id="path5550"
       d="M 304.57863,389.55113 C 281.92178,337.17856 259.26716,284.9849 253.64704,262.71815 c -5.61782,-22.08873 5.80109,-26.18588 17.22,-6.23475 11.23794,20.12917 30.81227,73.39154 50.38653,126.65294"
       style="fill:none;stroke:#000000;stroke-width:7.72654438px;stroke-linecap:butt;stroke-linejoin:round;stroke-miterlimit:4;stroke-dasharray:none;stroke-opacity:1" />
    <path
       inkscape:connector-curvature="0"
       id="path5552"
       d="m 280.11022,405.58136 c -29.90764,-48.62993 -59.81322,-97.26083 -68.69461,-118.2806 -8.70024,-21.19812 2.175,-26.89847 16.13144,-8.5506 13.95644,18.16983 41.14426,68.22566 68.1502,118.2827 z"
       style="fill:#ffc000;fill-opacity:1;fill-rule:evenodd;stroke:none" />
    <path
       inkscape:connector-curvature="0"
       id="path5554"
       d="m 280.11022,405.58136 c -29.90764,-48.62993 -59.81322,-97.26083 -68.69461,-118.2806 -8.70024,-21.19812 2.175,-26.89847 16.13144,-8.5506 13.95644,18.16983 41.14426,68.22566 68.1502,118.2827"
       style="fill:none;stroke:#000000;stroke-width:7.72654438px;stroke-linecap:butt;stroke-linejoin:round;stroke-miterlimit:4;stroke-dasharray:none;stroke-opacity:1" />
    <path
       inkscape:connector-curvature="0"
       id="path5556"
       d="M 327.23556,383.49425 C 314.18605,328.09364 300.95327,272.8717 299.32268,250.07039 c -1.81157,-22.80131 10.33108,-24.9389 17.94366,-3.20622 7.61258,21.55409 17.5818,77.31058 27.55101,133.06708 z"
       style="fill:#ffc000;fill-opacity:1;fill-rule:evenodd;stroke:none" />
    <path
       inkscape:connector-curvature="0"
       id="path5558"
       d="M 327.23556,383.49425 C 314.18605,328.09364 300.95327,272.8717 299.32268,250.07039 c -1.81157,-22.80131 10.33108,-24.9389 17.94366,-3.20622 7.61258,21.55409 17.5818,77.31058 27.55101,133.06708"
       style="fill:none;stroke:#000000;stroke-width:7.72654438px;stroke-linecap:butt;stroke-linejoin:round;stroke-miterlimit:4;stroke-dasharray:none;stroke-opacity:1" />
    <path
       inkscape:connector-curvature="0"
       id="path5560"
       d="M 273.0404,410.56912 C 225.19066,353.21056 177.34002,296.0293 161.93364,270.37782 c -15.22516,-25.82951 -2.35638,-35.09253 19.21271,-14.07268 21.56902,21.02001 65.79496,80.69515 110.20188,140.19203 z"
       style="fill:#ffc000;fill-opacity:1;fill-rule:evenodd;stroke:none" />
    <path
       inkscape:connector-curvature="0"
       id="path5562"
       d="M 273.0404,410.56912 C 225.19066,353.21056 177.34002,296.0293 161.93364,270.37782 c -15.22516,-25.82951 -2.35638,-35.09253 19.21271,-14.07268 21.56902,21.02001 65.79496,80.69515 110.20188,140.19203"
       style="fill:none;stroke:#000000;stroke-width:7.72654438px;stroke-linecap:butt;stroke-linejoin:round;stroke-miterlimit:4;stroke-dasharray:none;stroke-opacity:1" />
    <path
       inkscape:connector-curvature="0"
       id="path5564"
       d="m 334.30537,384.38332 c -8.88138,-73.56891 -17.94366,-147.13871 -16.67486,-176.88711 1.08553,-29.74864 17.03673,-30.81735 23.74238,-1.60327 6.52483,29.03606 11.41891,102.78388 16.13217,176.35433 z"
       style="fill:#ffc000;fill-opacity:1;fill-rule:evenodd;stroke:none" />
    <path
       inkscape:connector-curvature="0"
       id="path5566"
       d="m 334.30537,384.38332 c -8.88138,-73.56891 -17.94366,-147.13871 -16.67486,-176.88711 1.08553,-29.74864 17.03673,-30.81735 23.74238,-1.60327 6.52483,29.03606 11.41891,102.78388 16.13217,176.35433"
       style="fill:none;stroke:#000000;stroke-width:7.72654438px;stroke-linecap:butt;stroke-linejoin:round;stroke-miterlimit:4;stroke-dasharray:none;stroke-opacity:1" />
    <path
       inkscape:connector-curvature="0"
       id="path5568"
       d="m 254.91576,464.90134 c -42.41273,-15.14116 -84.64465,-30.10453 -100.5947,-38.83316 -15.76915,-8.55076 -11.96282,-17.27939 5.61872,-12.82505 17.58163,4.27429 58.72589,21.55368 100.05112,39.01094 z"
       style="fill:#ffc000;fill-opacity:1;fill-rule:evenodd;stroke:none" />
    <path
       inkscape:connector-curvature="0"
       id="path5570"
       d="m 254.91576,464.90134 c -42.41273,-15.14116 -84.64465,-30.10453 -100.5947,-38.83316 -15.76915,-8.55076 -11.96282,-17.27939 5.61872,-12.82505 17.58163,4.27429 58.72589,21.55368 100.05112,39.01094"
       style="fill:none;stroke:#000000;stroke-width:7.72654438px;stroke-linecap:butt;stroke-linejoin:round;stroke-miterlimit:4;stroke-dasharray:none;stroke-opacity:1" />
    <path
       inkscape:connector-curvature="0"
       id="path5572"
       d="m 266.51565,442.10068 c -40.05618,-20.48683 -79.93172,-40.9714 -94.61321,-51.48269 -14.50018,-10.50896 -9.60627,-18.70416 7.25006,-12.11151 16.85649,6.59031 55.46346,29.03533 94.0711,51.48035 z"
       style="fill:#ffc000;fill-opacity:1;fill-rule:evenodd;stroke:none" />
    <path
       inkscape:connector-curvature="0"
       id="path5574"
       d="m 266.51565,442.10068 c -40.05618,-20.48683 -79.93172,-40.9714 -94.61321,-51.48269 -14.50018,-10.50896 -9.60627,-18.70416 7.25006,-12.11151 16.85649,6.59031 55.46346,29.03533 94.0711,51.48035"
       style="fill:none;stroke:#000000;stroke-width:7.72654438px;stroke-linecap:butt;stroke-linejoin:round;stroke-miterlimit:4;stroke-dasharray:none;stroke-opacity:1" />
    <path
       inkscape:connector-curvature="0"
       id="path5576"
       d="M 259.26716,450.65152 C 205.61542,429.4534 151.96468,408.25537 132.02691,396.49717 c -19.93777,-11.75594 -14.68149,-22.62289 7.61266,-16.38814 22.47521,6.41253 74.6761,30.46009 126.6951,54.51 z"
       style="fill:#ffc000;fill-opacity:1;fill-rule:evenodd;stroke:none" />
    <path
       inkscape:connector-curvature="0"
       id="path5578"
       d="M 259.26716,450.65152 C 205.61542,429.4534 151.96468,408.25537 132.02691,396.49717 c -19.93777,-11.75594 -14.68149,-22.62289 7.61266,-16.38814 22.47521,6.41253 74.6761,30.46009 126.6951,54.51"
       style="fill:none;stroke:#000000;stroke-width:7.72654438px;stroke-linecap:butt;stroke-linejoin:round;stroke-miterlimit:4;stroke-dasharray:none;stroke-opacity:1" />
    <path
       inkscape:connector-curvature="0"
       id="path5580"
       d="M 253.64704,476.30163 C 197.45918,462.76302 141.27082,449.22449 119.88294,440.318 c -21.569012,-8.72862 -17.9439,-20.3067 5.07506,-17.09934 23.20035,3.20517 78.30104,19.59323 133.40222,36.16149 z"
       style="fill:#ffc000;fill-opacity:1;fill-rule:evenodd;stroke:none" />
    <path
       inkscape:connector-curvature="0"
       id="path5582"
       d="M 253.64704,476.30163 C 197.45918,462.76302 141.27082,449.22449 119.88294,440.318 c -21.569012,-8.72862 -17.9439,-20.3067 5.07506,-17.09934 23.20035,3.20517 78.30104,19.59323 133.40222,36.16149"
       style="fill:none;stroke:#000000;stroke-width:7.72654438px;stroke-linecap:butt;stroke-linejoin:round;stroke-miterlimit:4;stroke-dasharray:none;stroke-opacity:1" />
    <path
       inkscape:connector-curvature="0"
       id="path5584"
       d="m 271.04794,430.70038 c -49.11961,-30.10679 -98.42044,-60.03345 -116.00207,-74.99593 -17.5813,-14.96338 -10.51239,-24.76064 10.51272,-14.78511 20.8442,10.15363 68.15093,42.57491 115.27767,74.99545 z"
       style="fill:#ffc000;fill-opacity:1;fill-rule:evenodd;stroke:none" />
    <path
       inkscape:connector-curvature="0"
       id="path5586"
       d="m 271.04794,430.70038 c -49.11961,-30.10679 -98.42044,-60.03345 -116.00207,-74.99593 -17.5813,-14.96338 -10.51239,-24.76064 10.51272,-14.78511 20.8442,10.15363 68.15093,42.57491 115.27767,74.99545"
       style="fill:none;stroke:#000000;stroke-width:7.72654438px;stroke-linecap:butt;stroke-linejoin:round;stroke-miterlimit:4;stroke-dasharray:none;stroke-opacity:1" />
    <path
       inkscape:connector-curvature="0"
       id="path5588"
       d="M 254.00883,482.89202 C 178.97136,475.7682 103.9329,468.46434 74.569831,460.98269 c -29.362819,-7.65951 -26.825292,-23.15857 3.443803,-23.33635 30.450396,0 104.582826,11.22251 178.896896,22.6228 z"
       style="fill:#ffc000;fill-opacity:1;fill-rule:evenodd;stroke:none" />
    <path
       inkscape:connector-curvature="0"
       id="path5590"
       d="M 254.00883,482.89202 C 178.97136,475.7682 103.9329,468.46434 74.569831,460.98269 c -29.362819,-7.65951 -26.825292,-23.15857 3.443803,-23.33635 30.450396,0 104.582826,11.22251 178.896896,22.6228"
       style="fill:none;stroke:#000000;stroke-width:7.72654438px;stroke-linecap:butt;stroke-linejoin:round;stroke-miterlimit:4;stroke-dasharray:none;stroke-opacity:1" />
    <path
       inkscape:connector-curvature="0"
       id="path5592"
       d="M 276.66576,426.42383 C 217.39694,380.64246 158.12739,334.8627 137.46457,312.95224 c -20.66282,-21.9107 -9.96905,-33.66753 15.58769,-17.63552 25.73795,15.85398 82.10737,64.66315 138.47687,113.47207 z"
       style="fill:#ffc000;fill-opacity:1;fill-rule:evenodd;stroke:none" />
    <path
       inkscape:connector-curvature="0"
       id="path5594"
       d="M 276.66576,426.42383 C 217.39694,380.64246 158.12739,334.8627 137.46457,312.95224 c -20.66282,-21.9107 -9.96905,-33.66753 15.58769,-17.63552 25.73795,15.85398 82.10737,64.66315 138.47687,113.47207"
       style="fill:none;stroke:#000000;stroke-width:7.72654438px;stroke-linecap:butt;stroke-linejoin:round;stroke-miterlimit:4;stroke-dasharray:none;stroke-opacity:1" />
    <path
       inkscape:connector-curvature="0"
       id="path5596"
       d="m 284.82348,422.14954 c -63.62029,-59.3195 -127.0587,-118.63851 -148.62771,-146.07129 -21.38788,-27.43286 -7.79397,-40.08054 20.1189,-18.8825 27.91288,21.19811 87.90822,83.72359 147.7212,146.24963 z"
       style="fill:#ffc000;fill-opacity:1;fill-rule:evenodd;stroke:none" />
    <path
       inkscape:connector-curvature="0"
       id="path5598"
       d="m 284.82348,422.14954 c -63.62029,-59.3195 -127.0587,-118.63851 -148.62771,-146.07129 -21.38788,-27.43286 -7.79397,-40.08054 20.1189,-18.8825 27.91288,21.19811 87.90822,83.72359 147.7212,146.24963"
       style="fill:none;stroke:#000000;stroke-width:7.72654438px;stroke-linecap:butt;stroke-linejoin:round;stroke-miterlimit:4;stroke-dasharray:none;stroke-opacity:1" />
    <path
       inkscape:connector-curvature="0"
       id="path5600"
       d="m 355.69349,373.87428 c -57.27774,0 -103.85802,45.78138 -103.85802,102.07171 0,56.46819 46.58028,102.07178 103.85802,102.07178 57.45643,0 103.85572,-45.60359 103.85572,-102.07178 0,-56.29033 -46.39929,-102.07171 -103.85572,-102.07171 z"
       style="fill:#ffcc00;fill-opacity:1;fill-rule:evenodd;stroke:none" />
    <path
       inkscape:connector-curvature="0"
       id="path5602"
       d="m 355.69349,373.87428 c -57.27774,0 -103.85802,45.78138 -103.85802,102.07171 0,56.46819 46.58028,102.07178 103.85802,102.07178 57.45643,0 103.85572,-45.60359 103.85572,-102.07178 0,-56.29033 -46.39929,-102.07171 -103.85572,-102.07171"
       style="fill:none;stroke:#000000;stroke-width:7.72654438px;stroke-linecap:butt;stroke-linejoin:round;stroke-miterlimit:4;stroke-dasharray:none;stroke-opacity:1" />
    <path
       inkscape:connector-curvature="0"
       id="path5604"
       d="m 331.22278,401.66271 c -5.61782,0.53553 -26.64415,8.72863 -34.07584,16.56818 -7.61258,7.65951 -11.5998,25.29455 -11.05474,29.56884 0.54244,4.09869 10.33109,-1.78041 14.13742,-4.62994 3.80625,-2.85179 3.44446,-7.66177 8.51951,-12.46941 5.25595,-4.80998 18.8483,-11.04472 22.47365,-15.8547 3.80633,-4.80999 5.80109,-13.7164 0,-13.18297 z"
       style="fill:#ffefab;fill-opacity:1;fill-rule:evenodd;stroke:none" />
    <path
       inkscape:connector-curvature="0"
       id="path5606"
       d="m 331.22278,401.66271 c -5.61782,0.53553 -26.64415,8.72863 -34.07584,16.56818 -7.61258,7.65951 -11.5998,25.29455 -11.05474,29.56884 0.54244,4.09869 10.33109,-1.78041 14.13742,-4.62994 3.80625,-2.85179 3.44446,-7.66177 8.51951,-12.46941 5.25595,-4.80998 18.8483,-11.04472 22.47365,-15.8547 3.80633,-4.80999 5.80109,-13.7164 0,-13.18297"
       style="fill:none;stroke:#000000;stroke-width:7.72654438px;stroke-linecap:butt;stroke-linejoin:round;stroke-miterlimit:4;stroke-dasharray:none;stroke-opacity:1" />
  </g>
</svg>
